<svg width="17" height="10" viewBox="0 0 17 10" fill="none" xmlns="http://www.w3.org/2000/svg">
<path d="M8.22168 9.24268C8.49026 9.51126 8.87361 9.59548 9.21387 9.49463C9.2755 9.47637 9.33569 9.45177 9.39355 9.42139C9.45169 9.39085 9.50713 9.3538 9.55957 9.31104C9.58575 9.28968 9.61133 9.26708 9.63574 9.24268L16.707 2.17139C17.0974 1.78089 17.0974 1.14782 16.707 0.757324C16.3165 0.366837 15.6835 0.366911 15.293 0.757324L8.92871 7.12158L2.56445 0.757324C2.17391 0.367037 1.54084 0.366889 1.15039 0.757324C0.759944 1.14777 0.760099 1.78084 1.15039 2.17139L8.22168 9.24268Z" fill="#9A9EA6"/>
</svg>
