<svg width="17" height="10" viewBox="0 0 17 10" fill="none" xmlns="http://www.w3.org/2000/svg">
<path d="M8.22168 9.00427C8.49026 9.27285 8.87361 9.35708 9.21387 9.25623C9.2755 9.23796 9.33569 9.21337 9.39355 9.18298C9.45169 9.15245 9.50713 9.1154 9.55957 9.07263C9.58575 9.05128 9.61133 9.02867 9.63574 9.00427L16.707 1.93298C17.0974 1.54249 17.0974 0.909417 16.707 0.518921C16.3165 0.128433 15.6835 0.128508 15.293 0.518921L8.92871 6.88318L2.56445 0.518921C2.17391 0.128633 1.54084 0.128486 1.15039 0.518921C0.759944 0.909368 0.760099 1.54244 1.15039 1.93298L8.22168 9.00427Z" fill="white"/>
</svg>
