<svg width="40" height="40" viewBox="0 0 40 40" fill="none" xmlns="http://www.w3.org/2000/svg">
<path d="M6.66699 28V16.9094C6.66699 16.7979 6.78434 16.7253 6.88407 16.7752L18.6587 22.6625C19.5033 23.0848 20.4974 23.0848 21.342 22.6625L33.1166 16.7752C33.2163 16.7253 33.3337 16.7979 33.3337 16.9094V28C33.3337 29.1046 32.4382 30 31.3337 30H8.66699C7.56242 30 6.66699 29.1046 6.66699 28Z" fill="#E85603"/>
<path d="M6.66699 12V14.9073C6.66699 14.9641 6.69909 15.016 6.74991 15.0414L18.6587 20.9958C19.5033 21.4181 20.4974 21.4181 21.342 20.9958L33.2507 15.0414C33.3016 15.016 33.3337 14.9641 33.3337 14.9073V12C33.3337 10.8954 32.4382 9.99999 31.3337 9.99999H8.66699C7.56242 9.99999 6.66699 10.8954 6.66699 12Z" fill="#E85603" fill-opacity="0.5"/>
</svg>
