<svg width="42" height="42" viewBox="0 0 42 42" fill="none" xmlns="http://www.w3.org/2000/svg">
<path d="M35.0571 34.6602H6.94336C5.55097 34.6602 4.21561 34.1071 3.23105 33.1225C2.24648 32.138 1.69336 30.8026 1.69336 29.4102V12.584C1.69336 11.1916 2.24648 9.85624 3.23105 8.87167C4.21561 7.88711 5.55097 7.33398 6.94336 7.33398H35.0571C36.4495 7.33398 37.7849 7.88711 38.7694 8.87167C39.754 9.85624 40.3071 11.1916 40.3071 12.584V29.4102C40.3071 30.8026 39.754 32.138 38.7694 33.1225C37.7849 34.1071 36.4495 34.6602 35.0571 34.6602ZM6.94336 8.64648C5.89907 8.64648 4.89755 9.06133 4.15913 9.79975C3.4207 10.5382 3.00586 11.5397 3.00586 12.584V29.4102C3.00586 30.4545 3.4207 31.456 4.15913 32.1945C4.89755 32.9329 5.89907 33.3477 6.94336 33.3477H35.0571C36.1014 33.3477 37.1029 32.9329 37.8413 32.1945C38.5798 31.456 38.9946 30.4545 38.9946 29.4102V12.584C38.9946 11.5397 38.5798 10.5382 37.8413 9.79975C37.1029 9.06133 36.1014 8.64648 35.0571 8.64648H6.94336Z" fill="white" stroke="white" stroke-width="0.5"/>
<path d="M21.0005 24.6588C19.8616 24.6655 18.7514 24.3015 17.8374 23.622L2.50742 12.0129C2.42479 11.9681 2.35276 11.906 2.29619 11.831C2.23963 11.7559 2.19985 11.6695 2.17955 11.5778C2.15925 11.486 2.1589 11.3909 2.17853 11.299C2.19816 11.2071 2.23731 11.1204 2.29333 11.0449C2.34935 10.9695 2.42093 10.9069 2.50323 10.8615C2.58552 10.8161 2.67662 10.7888 2.77034 10.7817C2.86406 10.7745 2.95823 10.7876 3.04647 10.82C3.13471 10.8524 3.21496 10.9034 3.28179 10.9695L18.6249 22.5523C19.3088 23.0697 20.143 23.3496 21.0005 23.3496C21.8581 23.3496 22.6923 23.0697 23.3762 22.5523L38.7193 10.9695C38.7874 10.9127 38.8662 10.8704 38.9511 10.845C39.036 10.8195 39.1252 10.8116 39.2133 10.8215C39.3013 10.8315 39.3864 10.8592 39.4635 10.903C39.5406 10.9468 39.6079 11.0057 39.6616 11.0762C39.7153 11.1467 39.7541 11.2274 39.7758 11.3133C39.7974 11.3993 39.8014 11.4887 39.7876 11.5762C39.7737 11.6637 39.7423 11.7476 39.6951 11.8226C39.648 11.8977 39.5862 11.9624 39.5134 12.0129L24.1637 23.622C23.2497 24.3015 22.1395 24.6655 21.0005 24.6588Z" fill="white" stroke="white" stroke-width="0.5"/>
<path d="M2.73592 31.9172C2.60417 31.9155 2.47596 31.8742 2.36799 31.7987C2.26002 31.7232 2.17728 31.6169 2.13055 31.4937C2.08382 31.3705 2.07526 31.2361 2.10598 31.108C2.1367 30.9798 2.20528 30.8639 2.3028 30.7753L14.3712 20.0062C14.5026 19.8905 14.6746 19.8317 14.8494 19.8428C15.0242 19.8538 15.1874 19.9339 15.3031 20.0653C15.4189 20.1967 15.4777 20.3687 15.4666 20.5435C15.4555 20.7182 15.3755 20.8814 15.244 20.9972L3.17561 31.7531C3.05428 31.8601 2.8977 31.9186 2.73592 31.9172ZM39.2628 31.9172C39.101 31.9186 38.9444 31.8601 38.8231 31.7531L26.7547 20.9972C26.6852 20.9414 26.6278 20.8721 26.586 20.7935C26.5442 20.7148 26.5188 20.6285 26.5114 20.5397C26.504 20.4509 26.5148 20.3616 26.5431 20.2771C26.5713 20.1926 26.6165 20.1148 26.6758 20.0483C26.7351 19.9819 26.8074 19.9282 26.8881 19.8906C26.9688 19.8529 27.0564 19.8321 27.1454 19.8294C27.2345 19.8267 27.3231 19.8421 27.406 19.8748C27.4889 19.9075 27.5642 19.9566 27.6275 20.0194L39.6959 30.7753C39.8254 30.8912 39.9036 31.0536 39.9134 31.2271C39.9233 31.4006 39.8639 31.5708 39.7484 31.7006C39.6871 31.7686 39.6122 31.823 39.5285 31.8603C39.4449 31.8976 39.3544 31.917 39.2628 31.9172Z" fill="white" stroke="white" stroke-width="0.5"/>
</svg>
