<svg width="15" height="28" viewBox="0 0 15 28" fill="none" xmlns="http://www.w3.org/2000/svg">
<path d="M4.17633 15.6961C4.07193 15.6961 1.77494 15.6961 0.730859 15.6961C0.174014 15.6961 0 15.4872 0 14.9652C0 13.5731 0 12.1462 0 10.7541C0 10.1972 0.208817 10.0232 0.730859 10.0232H4.17633C4.17633 9.91879 4.17633 7.90023 4.17633 6.96056C4.17633 5.56845 4.41995 4.24594 5.11601 3.02784C5.84687 1.77494 6.89095 0.939675 8.21346 0.452436C9.08353 0.139211 9.9536 0 10.8933 0H14.3039C14.7912 0 15 0.208817 15 0.696056V4.66357C15 5.15081 14.7912 5.35963 14.3039 5.35963C13.3643 5.35963 12.4246 5.35963 11.4849 5.39443C10.5452 5.39443 10.058 5.84687 10.058 6.82135C10.0232 7.86543 10.058 8.87471 10.058 9.9536H14.0951C14.652 9.9536 14.8608 10.1624 14.8608 10.7193V14.9304C14.8608 15.4872 14.6868 15.6613 14.0951 15.6613C12.8422 15.6613 10.1624 15.6613 10.058 15.6613V27.007C10.058 27.5986 9.88399 27.8074 9.25754 27.8074C7.79582 27.8074 6.36891 27.8074 4.90719 27.8074C4.38515 27.8074 4.17633 27.5986 4.17633 27.0766C4.17633 23.4223 4.17633 15.8005 4.17633 15.6961Z" fill="#B3B3B3"/>
</svg>
