<svg width="61" height="61" viewBox="0 0 61 61" fill="none" xmlns="http://www.w3.org/2000/svg">
<path d="M53.9857 31.6138C53.3607 31.5888 52.7132 32.12 52.6845 32.81C52.477 37.7175 50.7882 42.2063 48.0745 45.8788C46.2045 45.0312 44.297 44.31 42.3545 43.7237C42.9495 41.6412 43.3995 39.3875 43.672 36.9875C43.7595 36.3 43.2595 35.6875 42.572 35.6125C41.8845 35.525 41.2719 36.025 41.197 36.7125C40.9394 38.9775 40.5045 41.1038 39.9382 43.0663C36.7745 42.2975 33.5295 41.87 30.222 41.7838V33H35.472C36.1632 33 36.722 32.44 36.722 31.75C36.722 31.06 36.1632 30.5 35.472 30.5H30.222V21.55C30.582 21.33 30.8345 20.9525 30.8345 20.5C30.8345 20.0475 30.582 19.6687 30.222 19.45V8.0325C30.6032 8.0525 30.9732 8.08 31.3257 8.11875C31.9932 8.18625 32.6282 7.6975 32.7032 7.01C32.7782 6.32375 32.2807 5.7075 31.5945 5.6325C30.7832 5.545 29.9007 5.5 28.972 5.5C14.497 5.5 2.7207 17.275 2.7207 31.75C2.7207 46.225 14.497 58 28.9707 58C43.0732 58 54.587 46.9813 55.182 32.9163C55.2107 32.2263 54.6757 31.6438 53.9857 31.6138ZM39.152 45.445C37.087 50.9425 33.8457 54.6637 30.2207 55.3675V44.2838C33.2582 44.3675 36.242 44.7525 39.152 45.445ZM27.7207 55.375C24.1057 54.6563 20.8995 50.8537 18.842 45.4313C21.7357 44.7463 24.702 44.3662 27.7207 44.2838V55.375ZM27.7207 41.7838C24.4245 41.87 21.1895 42.2938 18.0357 43.0575C17.1457 40.0225 16.6095 36.6 16.5045 32.9988H27.7195V41.7825L27.7207 41.7838ZM9.9107 17.64C11.7645 18.4775 13.6557 19.1912 15.5807 19.7737C14.6545 23.0012 14.1007 26.625 14.0007 30.5H5.28445C5.5357 25.6963 7.21195 21.2762 9.9107 17.64ZM14.0057 33C14.1057 36.8725 14.657 40.4988 15.582 43.7262C13.6557 44.3088 11.7657 45.0225 9.9107 45.86C7.21195 42.225 5.5357 37.8037 5.2832 33H14.0057ZM16.5057 30.5C16.6107 26.8988 17.147 23.4762 18.037 20.4412C21.1907 21.205 24.4257 21.6287 27.722 21.715V30.4988H16.507L16.5057 30.5ZM27.7207 8.125V19.2162C24.7007 19.1325 21.7345 18.7538 18.842 18.0688C20.8995 12.6475 24.107 8.84375 27.7207 8.125ZM20.9907 9.40875C19.117 11.43 17.5395 14.1638 16.352 17.3962C14.7307 16.9088 13.1357 16.3225 11.5682 15.6425C14.1407 12.865 17.3595 10.71 20.992 9.40875H20.9907ZM11.5682 47.8575C13.137 47.1775 14.732 46.5913 16.3532 46.1038C17.5482 49.3563 19.1445 52.0812 21.0307 54.1062C17.382 52.8062 14.1495 50.645 11.5682 47.8575ZM36.8895 54.13C38.772 52.1125 40.3732 49.3825 41.5745 46.0988C43.2132 46.5913 44.8257 47.185 46.4107 47.8737C43.8207 50.6762 40.5657 52.8363 36.8895 54.13Z" fill="url(#paint0_linear_594_7929)"/>
<path d="M45.2207 33.625C49.812 33.625 57.7207 24.6688 57.7207 15.5C57.7207 8.6075 52.1132 3 45.2207 3C38.3282 3 32.7207 8.6075 32.7207 15.5C32.7207 24.6688 40.6295 33.625 45.2207 33.625ZM45.2207 5.5C50.7345 5.5 55.2207 9.98625 55.2207 15.5C55.2207 24.0275 47.9595 31.125 45.2207 31.125C42.482 31.125 35.2207 24.0275 35.2207 15.5C35.2207 9.98625 39.707 5.5 45.2207 5.5Z" fill="url(#paint1_linear_594_7929)"/>
<path d="M45.2207 20.5C47.9782 20.5 50.2207 18.2575 50.2207 15.5C50.2207 12.7425 47.9782 10.5 45.2207 10.5C42.4632 10.5 40.2207 12.7425 40.2207 15.5C40.2207 18.2575 42.4632 20.5 45.2207 20.5ZM45.2207 13C46.5995 13 47.7207 14.1212 47.7207 15.5C47.7207 16.8787 46.5995 18 45.2207 18C43.842 18 42.7207 16.8787 42.7207 15.5C42.7207 14.1212 43.842 13 45.2207 13Z" fill="url(#paint2_linear_594_7929)"/>
<defs>
<linearGradient id="paint0_linear_594_7929" x1="2.7207" y1="54.6712" x2="62.3171" y2="41.7611" gradientUnits="userSpaceOnUse">
<stop offset="0.307692" stop-color="#E85603"/>
<stop offset="1" stop-color="#F39C12"/>
</linearGradient>
<linearGradient id="paint1_linear_594_7929" x1="32.7207" y1="31.6832" x2="61.5501" y2="26.5814" gradientUnits="userSpaceOnUse">
<stop offset="0.307692" stop-color="#E85603"/>
<stop offset="1" stop-color="#F39C12"/>
</linearGradient>
<linearGradient id="paint2_linear_594_7929" x1="40.2207" y1="19.8659" x2="51.5798" y2="17.4035" gradientUnits="userSpaceOnUse">
<stop offset="0.307692" stop-color="#E85603"/>
<stop offset="1" stop-color="#F39C12"/>
</linearGradient>
</defs>
</svg>
