<svg width="25" height="26" viewBox="0 0 25 26" fill="none" xmlns="http://www.w3.org/2000/svg">
<path d="M24.9937 25.4041V25.403H24.9999V16.2054C24.9999 11.7058 24.041 8.23975 18.8338 8.23975C16.3305 8.23975 14.6506 9.62744 13.9648 10.943H13.8924V8.65981H8.95508V25.403H14.0961V17.1124C14.0961 14.9295 14.5058 12.8187 17.1818 12.8187C19.8185 12.8187 19.8579 15.3099 19.8579 17.2524V25.4041H24.9937Z" fill="#B3B3B3"/>
<path d="M0.373047 8.61328H5.59696V25.0313H0.373047V8.61328Z" fill="#B3B3B3"/>
<path d="M2.98509 0.403809C1.33718 0.403809 0 1.73476 0 3.37499C0 5.01522 1.33718 6.374 2.98509 6.374C4.633 6.374 5.97018 5.01522 5.97018 3.37499C5.96915 1.73476 4.63197 0.403809 2.98509 0.403809V0.403809Z" fill="#B3B3B3"/>
</svg>
