<svg width="46" height="43" viewBox="0 0 46 43" fill="none" xmlns="http://www.w3.org/2000/svg">
<path d="M24.25 20.3848C24.25 20.0532 24.1183 19.7353 23.8839 19.5009C23.6495 19.2665 23.3315 19.1348 23 19.1348C22.5055 19.1348 22.0222 18.9881 21.6111 18.7134C21.2 18.4387 20.8795 18.0483 20.6903 17.5915C20.5011 17.1347 20.4516 16.632 20.548 16.147C20.6445 15.6621 20.8826 15.2166 21.2322 14.867C21.5819 14.5174 22.0273 14.2793 22.5123 14.1828C22.9972 14.0863 23.4999 14.1359 23.9567 14.3251C24.4135 14.5143 24.804 14.8347 25.0787 15.2458C25.3534 15.657 25.5 16.1403 25.5 16.6348C25.5 16.9663 25.6317 17.2842 25.8661 17.5187C26.1005 17.7531 26.4185 17.8848 26.75 17.8848C27.0815 17.8848 27.3995 17.7531 27.6339 17.5187C27.8683 17.2842 28 16.9663 28 16.6348C28 15.6459 27.7068 14.6792 27.1574 13.8569C26.6079 13.0347 25.8271 12.3938 24.9134 12.0154C23.9998 11.6369 22.9945 11.5379 22.0246 11.7308C21.0546 11.9238 20.1637 12.4 19.4645 13.0992C18.7652 13.7985 18.289 14.6894 18.0961 15.6593C17.9031 16.6292 18.0022 17.6346 18.3806 18.5482C18.759 19.4618 19.3999 20.2427 20.2222 20.7921C21.0444 21.3415 22.0111 21.6348 23 21.6348C23.3315 21.6348 23.6495 21.5031 23.8839 21.2687C24.1183 21.0342 24.25 20.7163 24.25 20.3848Z" fill="white"/>
<path d="M30.275 27.2346L31.9375 25.5721C33.7045 23.8046 34.9077 21.5528 35.395 19.1015C35.8823 16.6501 35.6318 14.1094 34.6751 11.8004C33.7185 9.49143 32.0987 7.51797 30.0206 6.12952C27.9425 4.74107 25.4993 4 23 4C20.5007 4 18.0575 4.74107 15.9794 6.12952C13.9013 7.51797 12.2815 9.49143 11.3249 11.8004C10.3682 14.1094 10.1177 16.6501 10.605 19.1015C11.0923 21.5528 12.2955 23.8046 14.0625 25.5721L15.725 27.2346C10.9 28.2721 8 30.2471 8 32.7471C8 36.8471 15.5 38.9971 23 38.9971C30.5 38.9971 38 36.8471 38 32.7471C38 30.2471 35.1 28.2721 30.275 27.2346ZM23 36.4971C15.5 36.4971 10.5 34.2346 10.5 32.7471C10.5 31.8096 12.875 30.1471 17.8875 29.3971L18.95 30.4596C19.1891 30.6644 19.4967 30.7714 19.8113 30.7593C20.1259 30.7471 20.4243 30.6167 20.647 30.3941C20.8696 30.1715 21 29.873 21.0121 29.5584C21.0243 29.2438 20.9173 28.9363 20.7125 28.6971L15.825 23.8096C14.4074 22.3918 13.442 20.5855 13.0509 18.619C12.6599 16.6526 12.8607 14.6143 13.628 12.762C14.3954 10.9097 15.6947 9.32654 17.3618 8.21267C19.0289 7.09881 20.9888 6.50428 22.9938 6.50428C24.9987 6.50428 26.9586 7.09881 28.6257 8.21267C30.2928 9.32654 31.5921 10.9097 32.3595 12.762C33.1268 14.6143 33.3276 16.6526 32.9366 18.619C32.5455 20.5855 31.5801 22.3918 30.1625 23.8096L22.1125 31.8596C21.9816 31.9717 21.8754 32.1096 21.8003 32.2647C21.7253 32.4197 21.6832 32.5887 21.6765 32.7608C21.6699 32.933 21.6989 33.1046 21.7617 33.265C21.8245 33.4254 21.9199 33.5711 22.0417 33.6929C22.1635 33.8148 22.3092 33.9101 22.4696 33.9729C22.63 34.0358 22.8017 34.0648 22.9738 34.0581C23.146 34.0515 23.3149 34.0093 23.47 33.9343C23.625 33.8593 23.7629 33.753 23.875 33.6221L28.1125 29.3846C33.1125 30.1346 35.5 31.7971 35.5 32.7346C35.5 34.2346 30.5 36.4971 23 36.4971Z" fill="white"/>
</svg>
