<svg width="40" height="40" viewBox="0 0 40 40" fill="none" xmlns="http://www.w3.org/2000/svg">
<path d="M20 3.33301L20 2.33301L20 2.33301L20 3.33301ZM31.667 15H32.667H31.667ZM20.3965 29.8096L20.8433 30.7042L20.8436 30.7041L20.3965 29.8096ZM19.6035 29.8096L19.1564 30.7041L19.1567 30.7042L19.6035 29.8096ZM8.33301 15L7.33301 15L8.33301 15ZM20 3.33301V4.33301C25.891 4.33301 30.667 9.10896 30.667 15H31.667H32.667C32.667 8.00439 26.9956 2.33301 20 2.33301V3.33301ZM31.667 15L30.667 15C30.667 18.9707 28.562 22.1757 26.1007 24.5654C23.6425 26.9521 20.9267 28.4266 19.9494 28.9151L20.3965 29.8096L20.8436 30.7041C21.9077 30.1722 24.8271 28.5896 27.4939 26.0004C30.1575 23.4142 32.667 19.7246 32.667 15L31.667 15ZM20.3965 29.8096L19.9496 28.915C19.9568 28.9114 19.9747 28.905 20 28.905C20.0253 28.905 20.0432 28.9114 20.0504 28.915L19.6035 29.8096L19.1567 30.7042C19.6927 30.9719 20.3073 30.9719 20.8433 30.7042L20.3965 29.8096ZM19.6035 29.8096L20.0506 28.9151C19.0733 28.4266 16.3575 26.9521 13.8993 24.5654C11.438 22.1757 9.33301 18.9707 9.33301 15L8.33301 15L7.33301 15C7.33301 19.7246 9.84253 23.4142 12.5061 26.0004C15.1729 28.5896 18.0923 30.1722 19.1564 30.7041L19.6035 29.8096ZM8.33301 15H9.33301C9.33301 9.10896 14.109 4.33301 20 4.33301L20 3.33301L20 2.33301C13.0044 2.33301 7.33301 8.00439 7.33301 15H8.33301ZM20 10V9C16.6863 9 14 11.6863 14 15H15H16C16 12.7909 17.7909 11 20 11V10ZM15 15H14C14 18.3137 16.6863 21 20 21V20V19C17.7909 19 16 17.2091 16 15H15ZM20 20V21C23.3137 21 26 18.3137 26 15H25H24C24 17.2091 22.2091 19 20 19V20ZM25 15H26C26 11.6863 23.3137 9 20 9V10V11C22.2091 11 24 12.7909 24 15H25Z" fill="#E85603"/>
<path d="M32.9904 29.1667C34.3069 29.9268 35 30.789 35 31.6667C35 32.5443 34.3069 33.4066 32.9904 34.1667C31.6739 34.9268 29.7803 35.5579 27.5 35.9968C25.2197 36.4356 22.6331 36.6667 20 36.6667C17.367 36.6667 14.7803 36.4356 12.5 35.9968C10.2197 35.5579 8.32615 34.9268 7.00962 34.1667C5.69309 33.4066 5 32.5443 5 31.6667C5 30.789 5.69309 29.9268 7.00962 29.1667" stroke="#E85603" stroke-width="2" stroke-linecap="round"/>
</svg>
