<svg width="124" height="64" viewBox="0 0 124 64" fill="none" xmlns="http://www.w3.org/2000/svg">
<path d="M2 32C2 15.4315 15.4315 2 32 2H92C108.569 2 122 15.4315 122 32C122 48.5685 108.569 62 92 62H32C15.4315 62 2 48.5685 2 32Z" fill="#E85603"/>
<path d="M61.5 4L96 31.5L61.5 59L30 31.5L61.5 4Z" fill="white"/>
<path d="M55.366 36.328C55.17 36.44 54.946 36.5473 54.694 36.65C54.442 36.7527 54.176 36.8413 53.896 36.916C53.6253 36.9907 53.35 37.0513 53.07 37.098C52.79 37.1447 52.5193 37.168 52.258 37.168C51.39 37.168 50.6153 37.07 49.934 36.874C49.262 36.6687 48.6927 36.3607 48.226 35.95C47.7593 35.53 47.4047 35.0027 47.162 34.368C46.9193 33.724 46.798 32.968 46.798 32.1C46.798 31.1853 46.9427 30.406 47.232 29.762C47.5307 29.118 47.9227 28.5953 48.408 28.194C48.8933 27.7833 49.4487 27.4893 50.074 27.312C50.7087 27.1253 51.3573 27.032 52.02 27.032C52.7107 27.032 53.28 27.0787 53.728 27.172C54.176 27.2653 54.5773 27.3913 54.932 27.55V29.944H54.036V28.474L53.84 28.194C53.756 28.1473 53.6487 28.11 53.518 28.082C53.3873 28.0447 53.2473 28.0167 53.098 27.998C52.958 27.97 52.8087 27.9513 52.65 27.942C52.5007 27.9327 52.3607 27.928 52.23 27.928C51.7167 27.928 51.236 28.0073 50.788 28.166C50.34 28.3247 49.948 28.572 49.612 28.908C49.2853 29.244 49.024 29.678 48.828 30.21C48.6413 30.7327 48.548 31.3627 48.548 32.1C48.548 33.4253 48.8747 34.452 49.528 35.18C50.1907 35.908 51.138 36.272 52.37 36.272C52.678 36.272 52.9393 36.2533 53.154 36.216C53.378 36.1693 53.574 36.1133 53.742 36.048L53.952 35.796V33.15H52.468V32.366H56.346V33.15H55.366V36.328ZM63.9538 37H59.5018V36.216H60.9438V27.984H58.4378L58.1578 28.292V30.098H57.1498V27.2H66.3058V30.098H65.2978V28.292L65.0178 27.984H62.5118V36.216H63.9538V37ZM74.214 34.424H75.11V36.622C74.8207 36.7807 74.438 36.9113 73.962 37.014C73.486 37.1167 73.0147 37.168 72.548 37.168C71.6894 37.168 70.9194 37.07 70.238 36.874C69.5567 36.678 68.978 36.3747 68.502 35.964C68.0354 35.544 67.676 35.0167 67.424 34.382C67.172 33.7473 67.046 32.9867 67.046 32.1C67.046 31.1853 67.186 30.4107 67.466 29.776C67.746 29.132 68.124 28.6093 68.6 28.208C69.076 27.7973 69.6267 27.4987 70.252 27.312C70.8774 27.1253 71.5354 27.032 72.226 27.032C72.562 27.032 72.8654 27.046 73.136 27.074C73.4067 27.0927 73.6494 27.1253 73.864 27.172C74.088 27.2187 74.2934 27.2747 74.48 27.34C74.6667 27.4053 74.8487 27.4753 75.026 27.55V29.944H74.13V28.474L73.934 28.194C73.8314 28.1473 73.668 28.0913 73.444 28.026C73.2294 27.9607 72.8794 27.928 72.394 27.928C71.89 27.928 71.4187 28.0073 70.98 28.166C70.5414 28.3247 70.1587 28.572 69.832 28.908C69.5147 29.244 69.2627 29.678 69.076 30.21C68.8894 30.7327 68.796 31.3627 68.796 32.1C68.796 33.4347 69.132 34.466 69.804 35.194C70.4854 35.9127 71.4374 36.272 72.66 36.272C72.996 36.272 73.276 36.2487 73.5 36.202C73.7334 36.146 73.906 36.076 74.018 35.992L74.214 35.726V34.424Z" fill="black"/>
</svg>
