<svg width="60" height="61" viewBox="0 0 60 61" fill="none" xmlns="http://www.w3.org/2000/svg">
<path d="M56.2015 13.1938C56.1279 12.8825 55.9759 12.5952 55.76 12.3592C55.544 12.1232 55.2713 11.9464 54.9677 11.8456L50.2334 10.2669L48.6527 5.53251C48.5516 5.22957 48.3747 4.95749 48.1389 4.74207C47.9031 4.52666 47.6162 4.37504 47.3054 4.30161C46.9945 4.22817 46.6701 4.23535 46.3628 4.32247C46.0556 4.40958 45.7756 4.57374 45.5496 4.79938L39.5252 10.8238C34.3596 8.08309 28.3819 7.28708 22.679 8.58046C16.9762 9.87383 11.9268 13.1707 8.44882 17.8717C4.97087 22.5727 3.2953 28.3656 3.72675 34.1974C4.15819 40.0291 6.668 45.5125 10.7999 49.6505C14.9318 53.7884 20.4114 56.3064 26.2425 56.7464C32.0736 57.1865 37.869 55.5195 42.5751 52.0485C47.2813 48.5775 50.5856 43.5329 51.8874 37.832C53.1892 32.131 52.402 26.1522 49.669 20.9825L55.7009 14.9506C55.9272 14.7248 56.092 14.4448 56.1796 14.1373C56.2672 13.8298 56.2748 13.505 56.2015 13.1938ZM28.1252 53C24.996 53.0123 21.905 52.3124 19.0864 50.9533C16.2677 49.5942 13.7952 47.6116 11.8562 45.1555C9.91712 42.6995 8.56235 39.8344 7.89446 36.7773C7.22657 33.7202 7.26306 30.5512 8.00117 27.5102C8.73928 24.4693 10.1597 21.6362 12.1547 19.2254C14.1498 16.8147 16.6673 14.8895 19.5165 13.5957C22.3658 12.3018 25.472 11.6733 28.6001 11.7577C31.7282 11.842 34.7961 12.637 37.5715 14.0825C37.5827 14.1275 37.5827 14.1725 37.5977 14.2175L39.0977 18.7438L35.9702 21.875C33.3025 19.8786 29.9776 18.967 26.6648 19.3235C23.3519 19.6801 20.2971 21.2784 18.1153 23.7967C15.9335 26.315 14.7867 29.5663 14.9058 32.8962C15.0249 36.2261 16.4009 39.3872 18.757 41.7433C21.1131 44.0993 24.2742 45.4754 27.604 45.5944C30.9339 45.7135 34.1852 44.5667 36.7035 42.3849C39.2219 40.2031 40.8202 37.1483 41.1767 33.8355C41.5333 30.5226 40.6216 27.1977 38.6252 24.53L41.7602 21.395L46.2865 22.895C46.3259 22.9081 46.369 22.9044 46.4102 22.9156C48.0555 26.0535 48.8614 29.5636 48.7494 33.105C48.6375 36.6463 47.6115 40.0985 45.7713 43.1262C43.9311 46.1539 41.3391 48.6543 38.2471 50.3844C35.1552 52.1145 31.6683 53.0155 28.1252 53ZM37.5002 32.375C37.5065 34.4707 36.8124 36.5085 35.5283 38.1647C34.2441 39.8209 32.4435 41.0007 30.4122 41.5167C28.381 42.0327 26.2356 41.8553 24.3167 41.0127C22.3978 40.1701 20.8154 38.7106 19.8207 36.866C18.826 35.0213 18.476 32.8973 18.8264 30.831C19.1767 28.7648 20.2073 26.8748 21.7545 25.4611C23.3017 24.0475 25.2768 23.1913 27.3662 23.0283C29.4556 22.8654 31.5395 23.4052 33.2871 24.5619L29.0834 28.7656C28.7716 28.6767 28.4494 28.6294 28.1252 28.625C27.3836 28.625 26.6585 28.8449 26.0418 29.257C25.4252 29.6691 24.9445 30.2547 24.6607 30.9399C24.3769 31.6252 24.3026 32.3792 24.4473 33.1066C24.592 33.834 24.9491 34.5022 25.4736 35.0267C25.998 35.5511 26.6662 35.9083 27.3936 36.053C28.1211 36.1976 28.8751 36.1234 29.5603 35.8396C30.2455 35.5557 30.8312 35.0751 31.2432 34.4584C31.6553 33.8417 31.8752 33.1167 31.8752 32.375C31.8708 32.0508 31.8235 31.7287 31.7346 31.4169L35.9384 27.2131C36.9565 28.7422 37.4999 30.538 37.5002 32.375ZM46.3671 18.98L42.7334 17.7669L41.5221 14.1313L46.054 9.59563L46.9727 12.3425C47.0646 12.6188 47.2194 12.8698 47.4251 13.0758C47.6308 13.2818 47.8816 13.4371 48.1577 13.5294L50.9027 14.4444L46.3671 18.98Z" fill="url(#paint0_linear_590_7909)"/>
<defs>
<linearGradient id="paint0_linear_590_7909" x1="3.66016" y1="53.4829" x2="63.3963" y2="40.5266" gradientUnits="userSpaceOnUse">
<stop offset="0.307692" stop-color="#E85603"/>
<stop offset="1" stop-color="#F39C12"/>
</linearGradient>
</defs>
</svg>
