<svg width="61" height="67" viewBox="0 0 61 67" fill="none" xmlns="http://www.w3.org/2000/svg">
<path d="M57.4082 45.0366H51.0426L46.4207 42.8067C45.1363 42.1891 43.7676 41.875 42.3613 41.875H41.4707V28.1819C44.1238 27.6794 46.1582 25.0936 46.1582 21.9844C46.1582 18.8752 44.1238 16.2894 41.4707 15.7869V10.4688C41.4707 9.89299 41.0488 9.4219 40.5332 9.4219H37.2332L34.5801 5.76831C33.2957 4.05143 31.4207 2.95221 29.4238 2.77424L22.5145 2.12518C21.3238 2.01002 20.1145 2.22987 18.9988 2.74284L9.39883 7.32815H3.0332C2.51758 7.32815 2.0957 7.79924 2.0957 8.37502V20.9166C2.0957 21.5028 2.51758 21.9635 3.0332 21.9635H9.39883L14.0207 24.1933C15.3145 24.811 16.6738 25.125 18.0801 25.125H18.9707V38.8181C16.3176 39.3207 14.2832 41.9064 14.2832 45.0156C14.2832 48.1249 16.3176 50.7106 18.9707 51.2131V56.5313C18.9707 57.1071 19.3926 57.5781 19.9082 57.5781H23.2082L25.8613 61.2317C27.1457 62.9486 29.0207 64.0478 31.0176 64.2258L37.927 64.8749C38.1332 64.8958 38.3395 64.9063 38.5457 64.9063C39.5301 64.9063 40.5238 64.6864 41.4426 64.2572L51.0426 59.6719H57.4082C57.9238 59.6719 58.3457 59.2008 58.3457 58.625V46.0835C58.3457 45.4972 57.9238 45.0366 57.4082 45.0366ZM18.0801 23.0313C16.9363 23.0313 15.8207 22.7696 14.7613 22.2671L9.9707 19.9639C9.84883 19.9011 9.72695 19.8697 9.5957 19.8697H3.9707V9.4219H9.5957C9.72695 9.4219 9.84883 9.39049 9.96133 9.33815L19.7301 4.66909C20.5551 4.28174 21.4645 4.12471 22.3645 4.20846L29.2738 4.85752C30.7645 4.99362 32.1707 5.82065 33.127 7.09784L34.8145 9.4219H25.5332C25.327 9.4219 25.1301 9.49518 24.9613 9.64174L20.7988 13.2011C19.8332 14.0386 19.477 15.41 19.8707 16.6977C20.2738 17.9749 21.3145 18.8124 22.5332 18.8124H28.2426C28.7582 18.8124 29.2457 19.0427 29.602 19.451C29.9582 19.8697 30.1457 20.4141 30.1363 20.9794C30.0988 22.131 29.2738 23.0313 28.2426 23.0313H18.0801ZM20.8457 55.4844V50.25C20.8457 49.6742 20.4238 49.2031 19.9082 49.2031C17.8363 49.2031 16.1582 47.3292 16.1582 45.0156C16.1582 42.7021 17.8363 40.8281 19.9082 40.8281C20.4238 40.8281 20.8457 40.3571 20.8457 39.7813V34.5469H24.6707C25.1207 37.5096 27.4363 39.7813 30.2207 39.7813C33.0051 39.7813 35.3207 37.5096 35.7707 34.5469H39.5957V41.875H32.1988C30.1457 41.875 28.4957 43.6652 28.4301 45.9474C28.402 47.0989 28.777 48.1877 29.4988 49.0042C30.2113 49.8313 31.1676 50.2814 32.1988 50.2814H37.9082C38.527 50.2814 38.7426 50.8258 38.7988 50.9933C38.8457 51.1503 38.977 51.7261 38.4988 52.1449L34.5895 55.4844H20.8457Z" fill="url(#paint0_linear_477_7760)"/>
<defs>
<linearGradient id="paint0_linear_477_7760" x1="2.0957" y1="60.9237" x2="66.5636" y2="48.4081" gradientUnits="userSpaceOnUse">
<stop offset="0.307692" stop-color="#E85603"/>
<stop offset="1" stop-color="#F39C12"/>
</linearGradient>
</defs>
</svg>
