<svg width="36" height="36" viewBox="0 0 36 36" fill="none" xmlns="http://www.w3.org/2000/svg">
<path d="M5.22506 4.33049L6.55146 3.00409L6.55147 3.00409C6.82792 2.72764 6.96614 2.58941 7.11562 2.51619C7.39315 2.38022 7.71796 2.38022 7.99549 2.51619C8.14497 2.58941 8.28319 2.72764 8.55965 3.00409L14.107 8.55146C14.3835 8.82792 14.5217 8.96614 14.5949 9.11562C14.7309 9.39315 14.7309 9.71796 14.5949 9.99549C14.5217 10.145 14.3835 10.2832 14.107 10.5596L11.8466 12.82L11.8398 12.8268C11.5392 13.1302 11.4644 13.5911 11.6537 13.974L11.658 13.9826L11.7062 14.0789C13.9257 18.4926 17.5074 22.0743 21.9211 24.2938L22.0174 24.342L22.026 24.3463C22.4089 24.5356 22.8698 24.4608 23.1732 24.1602L23.18 24.1534L25.4404 21.893C25.7168 21.6165 25.855 21.4783 26.0045 21.4051C26.282 21.2691 26.6068 21.2691 26.8844 21.4051C27.0338 21.4783 27.1721 21.6165 27.4485 21.893L27.4485 21.893L32.9959 27.4404C33.2724 27.7168 33.4106 27.855 33.4838 28.0045C33.6198 28.282 33.6198 28.6068 33.4838 28.8844C33.4106 29.0339 33.2724 29.1721 32.9959 29.4485L31.6695 30.7749C30.2116 32.2328 29.4827 32.9617 28.6804 33.3849C27.193 34.1694 25.4446 34.2936 23.8611 33.7274C23.007 33.4219 22.1823 32.8034 20.533 31.5664L15.0659 27.4661L15.0658 27.466C13.9642 26.6399 13.4134 26.2267 12.8905 25.7835C11.9273 24.9671 11.0329 24.0727 10.2165 23.1095C9.77324 22.5865 9.36013 22.0357 8.53391 20.9341L4.43361 15.467C3.19657 13.8177 2.57805 12.993 2.27264 12.1389C1.70639 10.5554 1.83064 8.80704 2.61514 7.31958C3.03826 6.51729 3.76719 5.78836 5.22506 4.33049Z" stroke="#E85603" stroke-width="3"/>
</svg>
