<svg width="65" height="65" viewBox="0 0 65 65" fill="none" xmlns="http://www.w3.org/2000/svg">
<path fill-rule="evenodd" clip-rule="evenodd" d="M14.5809 41.961L7.36089 54.114C7.15789 54.455 7.17689 54.884 7.40789 55.207C7.63989 55.53 8.03989 55.685 8.42889 55.603L14.1279 54.392L15.9299 59.934C16.0519 60.308 16.3819 60.576 16.7729 60.618C17.1639 60.661 17.5439 60.471 17.7429 60.131L24.2629 49.05C26.7369 49.987 29.4189 50.5 32.2209 50.5C34.7519 50.5 37.1859 50.081 39.4569 49.309L45.6949 60.124C45.8919 60.466 46.2719 60.66 46.6649 60.619C47.0579 60.578 47.3899 60.309 47.5119 59.934L49.3139 54.392L55.0129 55.603C55.3939 55.683 55.7869 55.536 56.0209 55.225C56.2539 54.913 56.2859 54.495 56.1019 54.152L49.6849 42.181C52.8329 38.309 54.7209 33.373 54.7209 28C54.7209 15.582 44.6389 5.5 32.2209 5.5C19.8029 5.5 9.72089 15.582 9.72089 28C9.72089 33.273 11.5389 38.124 14.5809 41.961ZM15.9639 43.549L10.2469 53.172L14.5929 52.249C15.0939 52.143 15.5939 52.431 15.7519 52.918L17.1459 57.203L22.4119 48.252C19.9879 47.075 17.8069 45.475 15.9639 43.549ZM48.2659 43.767C46.2929 45.775 43.9469 47.414 41.3399 48.572L46.3039 57.179L47.6899 52.918C47.8479 52.431 48.3479 52.143 48.8489 52.249L53.3219 53.199L48.2659 43.767ZM32.2209 7.5C43.5349 7.5 52.7209 16.686 52.7209 28C52.7209 39.314 43.5349 48.5 32.2209 48.5C20.9069 48.5 11.7209 39.314 11.7209 28C11.7209 16.686 20.9069 7.5 32.2209 7.5ZM32.2209 8.772C21.6089 8.772 12.9929 17.388 12.9929 28C12.9929 38.612 21.6089 47.228 32.2209 47.228C42.8329 47.228 51.4489 38.612 51.4489 28C51.4489 17.388 42.8329 8.772 32.2209 8.772ZM32.2209 10.772C41.7299 10.772 49.4489 18.491 49.4489 28C49.4489 37.509 41.7299 45.228 32.2209 45.228C22.7119 45.228 14.9929 37.509 14.9929 28C14.9929 18.491 22.7119 10.772 32.2209 10.772ZM23.0259 26.451L29.8409 34.289C30.1979 34.7 30.8169 34.75 31.2359 34.402L44.6739 23.212C45.0979 22.859 45.1549 22.228 44.8019 21.804C44.4489 21.38 43.8179 21.322 43.3939 21.675L30.7079 32.238L24.5359 25.138C24.1729 24.722 23.5409 24.678 23.1249 25.04C22.7079 25.402 22.6639 26.034 23.0259 26.451Z" fill="url(#paint0_linear_594_7939)"/>
<defs>
<linearGradient id="paint0_linear_594_7939" x1="7.2207" y1="57.1293" x2="63.4095" y2="46.3019" gradientUnits="userSpaceOnUse">
<stop offset="0.307692" stop-color="#E85603"/>
<stop offset="1" stop-color="#F39C12"/>
</linearGradient>
</defs>
</svg>
