<svg width="142" height="116" viewBox="0 0 142 116" fill="none" xmlns="http://www.w3.org/2000/svg">
<g opacity="0.6">
<path fill-rule="evenodd" clip-rule="evenodd" d="M130 38.8069C115.022 45.9219 107.533 54.2819 107.533 63.8872C113.917 64.5987 119.196 67.1186 123.371 71.4469C127.545 75.7751 129.632 80.7852 129.632 86.4772C129.632 92.525 127.606 97.624 123.555 101.774C119.503 105.925 114.409 108 108.27 108C101.395 108 95.4409 105.302 90.4074 99.9067C85.3739 94.5112 82.8571 87.9595 82.8571 80.2516C82.8571 57.1279 96.2387 39.0442 123.002 26L130 38.8069ZM77.1429 38.8069C62.0423 45.9219 54.4922 54.2819 54.4922 63.8872C60.9989 64.5987 66.3393 67.1186 70.5134 71.4469C74.6875 75.7751 76.7746 80.7852 76.7746 86.4772C76.7746 92.525 74.7182 97.624 70.6055 101.774C66.4927 105.925 61.3672 108 55.2288 108C48.3538 108 42.4303 105.302 37.4581 99.9067C32.486 94.5112 30 87.9595 30 80.2516C30 57.1279 43.3202 39.0442 69.9609 26L77.1429 38.8069Z" fill="#192BC2"/>
</g>
</svg>
