<svg width="24" height="24" viewBox="0 0 24 24" fill="none" xmlns="http://www.w3.org/2000/svg">
<path d="M10.418 3.70312C11.0893 2.43053 12.9186 2.43457 13.5811 3.70215V3.70117L15.2666 6.93359L15.2686 6.9375C15.5762 7.51464 16.1249 7.93625 16.7744 8.06738L16.9062 8.08984L20.4658 8.57715C21.905 8.77551 22.4895 10.4982 21.5264 11.5312L21.4287 11.6289L18.9912 13.8779L18.9902 13.8789C18.4465 14.3822 18.1905 15.1294 18.3262 15.8623V15.8633L18.9209 19.1631C19.1786 20.5934 17.6892 21.7129 16.3779 21.0566L16.376 21.0557L12.9746 19.3691L12.9727 19.3682L12.7383 19.2695C12.1815 19.0723 11.5637 19.1052 11.0273 19.3682L11.0254 19.3691L7.62402 21.0557C6.30897 21.7079 4.82195 20.5903 5.0791 19.1631L5.67383 15.8633L5.67285 15.8623C5.80853 15.1293 5.55352 14.3822 5.00977 13.8789L5.00879 13.8779L2.57031 11.6289V11.6279C1.47518 10.618 2.04762 8.78204 3.53418 8.57715L7.09375 8.08984C7.79174 7.99323 8.40737 7.56735 8.73242 6.93262L8.7334 6.93359L10.418 3.70312Z" stroke="#9A9EA6"/>
</svg>
